<svg width="29" height="30" viewBox="0 0 29 30" fill="none" xmlns="http://www.w3.org/2000/svg">
<path d="M15.6486 12.3713V10.1441L15.9154 10.4109C16.1323 10.6293 16.4271 10.7527 16.7349 10.7538C17.0427 10.7548 17.3384 10.6336 17.5568 10.4167C17.7752 10.1998 17.8986 9.90503 17.8997 9.59721C17.9007 9.28939 17.7795 8.99374 17.5626 8.77531L15.3354 6.51331C15.2313 6.42256 15.1139 6.34824 14.9874 6.29291H14.8714C14.7789 6.28173 14.6855 6.28173 14.593 6.29291C14.5507 6.28718 14.5077 6.28718 14.4654 6.29291C14.3501 6.27541 14.2327 6.27541 14.1174 6.29291C13.9905 6.35243 13.8732 6.43063 13.7694 6.52491L11.4378 8.75211C11.2749 8.91366 11.1636 9.11989 11.1179 9.34471C11.0722 9.56954 11.0942 9.80286 11.1811 10.0152C11.2681 10.2275 11.416 10.4093 11.6062 10.5375C11.7964 10.6658 12.0204 10.7347 12.2498 10.7357C12.4025 10.7366 12.5538 10.7073 12.6951 10.6496C12.8365 10.5919 12.965 10.5068 13.0734 10.3993L13.3402 10.1325V12.3713C11.9319 12.6588 10.6805 13.4589 9.82866 14.6166C8.97679 15.7743 8.58511 17.207 8.72958 18.6371C8.87404 20.0671 9.54435 21.3926 10.6106 22.3565C11.6767 23.3204 13.0629 23.8541 14.5002 23.8541C15.9375 23.8541 17.3237 23.3204 18.3899 22.3565C19.4561 21.3926 20.1264 20.0671 20.2708 18.6371C20.4153 17.207 20.0236 15.7743 19.1718 14.6166C18.3199 13.4589 17.0685 12.6588 15.6602 12.3713H15.6486ZM14.4886 21.4193C13.8143 21.4192 13.155 21.2199 12.5936 20.8464C12.0322 20.4729 11.5936 19.9418 11.333 19.3199C11.0724 18.698 11.0013 18.0129 11.1287 17.3508C11.2561 16.6886 11.5763 16.0788 12.0491 15.598C12.5219 15.1172 13.1262 14.7868 13.7862 14.6483C14.4461 14.5098 15.1323 14.5693 15.7585 14.8194C16.3847 15.0696 16.923 15.4991 17.3059 16.0542C17.6888 16.6093 17.8992 17.2651 17.9106 17.9393C17.9183 18.3926 17.8358 18.8429 17.668 19.264C17.5002 19.6851 17.2504 20.0687 16.9331 20.3925C16.6158 20.7163 16.2374 20.9738 15.8197 21.15C15.4021 21.3263 14.9535 21.4178 14.5002 21.4193H14.4886Z" fill="#5C6DFF"/>
<path d="M14.5005 18.9024C15.0002 18.9024 15.4053 18.4973 15.4053 17.9976C15.4053 17.4979 15.0002 17.0928 14.5005 17.0928C14.0008 17.0928 13.5957 17.4979 13.5957 17.9976C13.5957 18.4973 14.0008 18.9024 14.5005 18.9024Z" fill="#5C6DFF"/>
<path d="M24.3602 1.61816H4.64016C3.7172 1.61816 2.83205 1.98481 2.17942 2.63743C1.5268 3.29006 1.16016 4.17521 1.16016 5.09816V24.8182C1.16016 25.7411 1.5268 26.6263 2.17942 27.2789C2.83205 27.9315 3.7172 28.2982 4.64016 28.2982H24.3602C25.2831 28.2982 26.1683 27.9315 26.8209 27.2789C27.4735 26.6263 27.8402 25.7411 27.8402 24.8182V5.09816C27.8402 4.17521 27.4735 3.29006 26.8209 2.63743C26.1683 1.98481 25.2831 1.61816 24.3602 1.61816ZM25.5202 24.8182C25.5202 25.1258 25.3979 25.4209 25.1804 25.6384C24.9629 25.8559 24.6678 25.9782 24.3602 25.9782H4.64016C4.3325 25.9782 4.03745 25.8559 3.81991 25.6384C3.60237 25.4209 3.48016 25.1258 3.48016 24.8182V5.09816C3.48016 4.79051 3.60237 4.49546 3.81991 4.27792C4.03745 4.06038 4.3325 3.93816 4.64016 3.93816H24.3602C24.6678 3.93816 24.9629 4.06038 25.1804 4.27792C25.3979 4.49546 25.5202 4.79051 25.5202 5.09816V24.8182Z" fill="#5C6DFF"/>
</svg>
