<svg width="26" height="26" viewBox="0 0 26 26" fill="none" xmlns="http://www.w3.org/2000/svg">
<g clip-path="url(#clip0_88_2300)">
<path d="M10.9291 12.2079C11.1864 12.5113 11.5485 12.7566 12.0154 12.9441C12.2705 13.0765 12.572 13.1545 12.8913 13.1545C13.2293 13.1521 13.5551 13.1009 13.8622 13.0083L13.8379 13.0148C14.0507 12.9579 14.2376 12.8742 14.4066 12.7645L14.3993 12.7694C14.5845 12.654 14.7454 12.5264 14.89 12.3834C15.1387 12.1438 15.3491 11.8659 15.5124 11.5604L15.5214 11.5425C15.6546 11.2695 15.7318 10.9486 15.7318 10.6098C15.7318 10.5927 15.7318 10.5756 15.731 10.5586V10.561V5.61938C15.731 5.61532 15.731 5.60963 15.731 5.60394C15.731 5.39757 15.7058 5.19769 15.657 5.00594L15.6603 5.023C15.4832 4.47375 15.1671 4.01063 14.7535 3.65963L14.7495 3.65638C14.3292 3.30592 13.8151 3.1074 13.2074 3.06082C13.1074 3.03807 12.992 3.02588 12.8742 3.02588C12.7564 3.02588 12.641 3.03888 12.5305 3.06325L12.5411 3.06163C12.2819 3.12175 12.0601 3.19407 11.8464 3.28263L11.8757 3.27207C11.3849 3.48657 10.9803 3.82294 10.6902 4.24382L10.6845 4.25275C10.4205 4.6525 10.2637 5.14244 10.2637 5.66975C10.2637 5.68925 10.2637 5.70875 10.2645 5.72825V5.725V10.3514C10.2645 10.3554 10.2645 10.3603 10.2645 10.3652C10.2645 10.4968 10.2775 10.6252 10.3019 10.7495L10.2994 10.7373C10.3197 10.8316 10.3327 10.9404 10.3344 11.0518V11.0534C10.4595 11.4978 10.6642 11.8846 10.9348 12.2161L10.9299 12.2104L10.9291 12.2079Z" fill="#AF6AF3"/>
<path d="M25.9649 5.7938C25.9876 5.63617 25.9998 5.45336 25.9998 5.26811C25.9998 5.08286 25.9868 4.90005 25.9625 4.72211L25.9649 4.74242C25.9178 4.55555 25.8715 4.34511 25.8243 4.11192C25.778 3.87386 25.7049 3.66261 25.6074 3.46598L25.6139 3.48061C25.4278 3.10442 25.2296 2.78348 25.0061 2.48205L25.0183 2.49911C24.7892 2.20092 24.5227 1.94661 24.2237 1.73536L24.2123 1.72805C23.9905 1.5493 23.7362 1.39573 23.4624 1.28036L23.4413 1.27223C23.1772 1.16011 22.8701 1.07398 22.55 1.0293L22.5305 1.02686C22.3086 0.982172 22.0527 0.956984 21.7919 0.956984C21.7805 0.956984 21.7691 0.956984 21.7578 0.956984H21.7594C21.462 0.956984 21.1711 0.982172 20.8876 1.03173L20.9176 1.02767C20.5163 1.12842 20.1661 1.26005 19.837 1.42661L19.8663 1.4128C19.5088 1.59073 19.2106 1.76542 18.9246 1.95717L18.9546 1.93848C18.6741 2.12536 18.3938 2.30059 18.1137 2.46417C17.8643 2.61205 17.5653 2.7648 17.2557 2.89886L17.2021 2.91998L17.1322 2.95492V10.3503C17.1322 10.3552 17.1322 10.3609 17.1322 10.3665C17.1322 10.646 17.107 10.919 17.0583 11.1839L17.0623 11.1563C17.0111 11.4358 16.938 11.6828 16.843 11.9184L16.8519 11.8924C16.6211 12.4051 16.3278 12.8447 15.9728 13.2274L15.976 13.2241C15.6153 13.6019 15.1855 13.909 14.7045 14.1252L14.6793 14.1357C14.516 14.2194 14.3193 14.3023 14.1154 14.3714L14.0829 14.3811C13.8871 14.4477 13.662 14.4859 13.428 14.4859C13.424 14.4859 13.4207 14.4859 13.4166 14.4859C13.3265 14.516 13.2241 14.533 13.1168 14.533C13.0624 14.533 13.0088 14.529 12.9568 14.52L12.9625 14.5209C12.8089 14.4989 12.631 14.4859 12.4506 14.4859C12.4457 14.4859 12.4408 14.4859 12.436 14.4859H12.4368C12.1345 14.4364 11.8745 14.3754 11.621 14.299L11.6657 14.3104C11.3984 14.2275 11.166 14.1203 10.9515 13.987L10.9645 13.9944C10.538 13.7555 10.1772 13.4508 9.88309 13.09L9.8774 13.0835C9.58246 12.7212 9.33465 12.3044 9.15265 11.8542L9.14127 11.8217C9.09415 11.6812 9.04784 11.5536 9.00071 11.4358C8.95602 11.3253 8.93084 11.1969 8.93084 11.0629C8.93084 11.0588 8.93084 11.0539 8.93084 11.0499C8.88425 10.6994 8.86096 10.525 8.86096 10.525V2.95411C8.86096 2.93136 8.83821 2.91917 8.79109 2.91917C8.55763 2.77888 8.34746 2.66215 8.16059 2.56898C7.94609 2.4593 7.76246 2.34311 7.59102 2.2123L7.59996 2.2188C7.31938 2.07851 7.05071 1.93821 6.79396 1.79792C6.53721 1.65763 6.29184 1.51734 6.05784 1.37705C5.73365 1.20805 5.35827 1.0748 4.9634 0.995984L4.93659 0.991109C4.72209 0.950484 4.4759 0.927734 4.22402 0.927734C4.05502 0.927734 3.88927 0.938297 3.72515 0.958609L3.74465 0.956984C3.35221 1.00492 2.99715 1.09105 2.65834 1.21292L2.69246 1.20236C2.34227 1.33073 2.04002 1.50867 1.77677 1.73211L1.78084 1.72886C1.49809 1.91817 1.25596 2.13836 1.04959 2.38942L1.04471 2.39511C0.849711 2.62992 0.675023 2.8948 0.530398 3.17673L0.519023 3.20111C0.398773 3.43186 0.280961 3.70973 0.181836 3.99736L0.168023 4.04205C0.0786484 4.30692 0.0274609 4.61161 0.0274609 4.9293C0.0274609 4.93823 0.0274609 4.94636 0.0274609 4.95448V4.95286C0.00958594 5.06742 -0.000976562 5.19905 -0.000976562 5.33311C-0.000976562 5.5338 0.0217734 5.7288 0.0656484 5.91648L0.0623984 5.89942C0.132273 6.2033 0.214065 6.49525 0.307773 6.7753C0.466211 7.13686 0.653898 7.44805 0.875711 7.73161L0.868398 7.72186C1.10971 8.03142 1.38677 8.29792 1.69796 8.51973L1.71015 8.52786L3.39284 9.64911C3.57565 9.83273 3.77065 10.0042 3.97459 10.1642L3.9884 10.1748C4.20696 10.3454 4.40115 10.5169 4.58396 10.7005L5.28515 11.4017C5.51509 11.6316 5.72227 11.8843 5.90427 12.1549L5.91565 12.1727C6.10252 12.4062 6.26611 12.6283 6.4064 12.839C6.54669 13.0497 6.68698 13.2718 6.82727 13.5052C7.04665 13.8091 7.24571 14.1544 7.40821 14.52L7.42284 14.5574C7.58642 14.9312 7.73836 15.3049 7.87865 15.6787C8.06552 16.1927 8.22911 16.6951 8.3694 17.1859C8.4994 17.6214 8.59852 18.1332 8.64727 18.6605L8.64971 18.693C8.69359 18.8182 8.71959 18.9628 8.71959 19.1131C8.71959 19.2634 8.74559 19.408 8.79271 19.5429L8.79027 19.534C8.79027 19.7322 8.80327 19.9264 8.82765 20.1174L8.82521 20.0946C8.84715 20.2628 8.86015 20.4578 8.86015 20.6552L9.00071 21.4962C9.05596 21.8204 9.12909 22.1031 9.22252 22.3769L9.21115 22.3379C9.31596 22.6979 9.45977 23.0123 9.64096 23.2999L9.63202 23.2845C9.82621 23.5965 10.0586 23.8622 10.3275 24.0864L10.3332 24.0905C10.8784 24.5812 11.5771 24.9119 12.349 25.0005L12.3661 25.0021C12.5546 25.0444 12.7723 25.0695 12.995 25.072H12.9974C13.1965 25.072 13.3898 25.046 13.5743 24.998L13.558 25.0013C13.5653 25.0013 13.5735 25.0013 13.5816 25.0013C13.8505 25.0013 14.1073 24.9501 14.3429 24.8559L14.3291 24.8607C14.5625 24.767 14.8196 24.6503 15.1001 24.5105C15.5885 24.2075 15.9882 23.8069 16.2831 23.334L16.2921 23.3186C16.5163 23.0513 16.6951 22.736 16.8121 22.3924L16.8178 22.372C16.9258 22.06 17.012 21.6928 17.0599 21.3134L17.0631 21.2849C17.064 21.1232 17.077 20.9656 17.1005 20.8112L17.0981 20.8291C17.1192 20.6926 17.1322 20.535 17.133 20.3749C17.1796 20.0943 17.2145 19.8132 17.2378 19.5332C17.2606 19.2415 17.298 18.9774 17.35 18.719L17.3426 18.7621C17.3892 18.4815 17.4361 18.1896 17.4832 17.8862C17.5352 17.5523 17.6083 17.2565 17.705 16.9722L17.6936 17.0104C17.9271 16.2629 18.0438 15.8891 18.0438 15.8891L18.4647 14.7679C18.6516 14.3941 18.8385 14.032 19.0253 13.6815C19.2374 13.2875 19.4462 12.9552 19.6753 12.6375L19.6566 12.6651C19.9372 12.3379 20.2059 12.0224 20.4626 11.7185C20.7194 11.4147 20.9881 11.0992 21.2686 10.772C21.4555 10.6317 21.6308 10.4914 21.7943 10.3511C21.9579 10.2108 22.1099 10.0705 22.2501 9.93023L22.8108 9.50936C22.9733 9.38423 23.1577 9.26805 23.3511 9.16811L23.3714 9.15836L24.0726 8.66761L24.7738 8.10698C24.9623 7.91686 25.1353 7.7113 25.2897 7.49111L25.2995 7.47648C25.4563 7.25467 25.5871 6.99955 25.6789 6.72655L25.6854 6.70542V6.7753C25.813 6.49092 25.9105 6.16105 25.9633 5.81573L25.9649 5.7938Z" fill="#AF6AF3"/>
</g>
<defs>
<clipPath id="clip0_88_2300">
<rect width="26" height="26" fill="white"/>
</clipPath>
</defs>
</svg>
